<?xml version="1.0" encoding="UTF-8" standalone="no"?>
<!-- Generated by IcoMoon.io -->

<svg
   xmlns:dc="http://purl.org/dc/elements/1.1/"
   xmlns:cc="http://creativecommons.org/ns#"
   xmlns:rdf="http://www.w3.org/1999/02/22-rdf-syntax-ns#"
   xmlns:svg="http://www.w3.org/2000/svg"
   xmlns="http://www.w3.org/2000/svg"
   xmlns:sodipodi="http://sodipodi.sourceforge.net/DTD/sodipodi-0.dtd"
   xmlns:inkscape="http://www.inkscape.org/namespaces/inkscape"
   version="1.1"
   width="500"
   height="90"
   viewBox="0 0 500 90"
   id="svg3043"
   inkscape:version="0.48.2 r9819"
   sodipodi:docname="head.svg">
  <metadata
     id="metadata3051">
    <rdf:RDF>
      <cc:Work
         rdf:about="">
        <dc:format>image/svg+xml</dc:format>
        <dc:type
           rdf:resource="http://purl.org/dc/dcmitype/StillImage" />
        <dc:title></dc:title>
      </cc:Work>
    </rdf:RDF>
  </metadata>
  <defs
     id="defs3049">
    <marker
       inkscape:stockid="TriangleOutS"
       orient="auto"
       refY="0"
       refX="0"
       id="TriangleOutS"
       style="overflow:visible">
      <path
         id="path4224"
         d="m 5.77,0 -8.65,5 0,-10 8.65,5 z"
         style="fill-rule:evenodd;stroke:#000000;stroke-width:1pt;marker-start:none"
         transform="scale(0.2,0.2)"
         inkscape:connector-curvature="0" />
    </marker>
    <marker
       inkscape:stockid="Arrow1Send"
       orient="auto"
       refY="0"
       refX="0"
       id="Arrow1Send"
       style="overflow:visible">
      <path
         id="path4090"
         d="M 0,0 5,-5 -12.5,0 5,5 0,0 z"
         style="fill-rule:evenodd;stroke:#000000;stroke-width:1pt;marker-start:none"
         transform="matrix(-0.2,0,0,-0.2,-1.2,0)"
         inkscape:connector-curvature="0" />
    </marker>
    <marker
       inkscape:stockid="Arrow1Lend"
       orient="auto"
       refY="0"
       refX="0"
       id="Arrow1Lend"
       style="overflow:visible">
      <path
         id="path4078"
         d="M 0,0 5,-5 -12.5,0 5,5 0,0 z"
         style="fill-rule:evenodd;stroke:#000000;stroke-width:1pt;marker-start:none"
         transform="matrix(-0.8,0,0,-0.8,-10,0)"
         inkscape:connector-curvature="0" />
    </marker>
  </defs>
  <sodipodi:namedview
     pagecolor="#ffffff"
     bordercolor="#666666"
     borderopacity="1"
     objecttolerance="10"
     gridtolerance="10"
     guidetolerance="10"
     inkscape:pageopacity="0"
     inkscape:pageshadow="2"
     inkscape:window-width="1461"
     inkscape:window-height="746"
     id="namedview3047"
     showgrid="false"
     inkscape:zoom="1.0195313"
     inkscape:cx="296.87327"
     inkscape:cy="36.029482"
     inkscape:window-x="714"
     inkscape:window-y="249"
     inkscape:window-maximized="0"
     inkscape:current-layer="svg3043"
     fit-margin-top="0"
     fit-margin-left="0"
     fit-margin-right="0"
     fit-margin-bottom="0" />
  <path
     d="m 197.43132,22.118234 h -12.57779 v 7.54668 h 12.57779 v -7.54668 z m 0,30.1867 v -5.03111 h -12.57779 v 5.03111 h 12.57779 z m -12.57779,37.73338 h 12.57779 v -20.12447 h -12.57779 v 20.12447 z m 30.1867,-45.28005 -5.50153,-6.2889 5.50153,-6.2889 h -40.24894 l -6.54045,6.2889 6.54045,6.2889 h 40.24894 z m -5.03112,10.06223 h -40.24893 l 5.50404,6.2889 -5.50404,6.28889 h 40.24893 l 6.60334,-6.28889 -6.60334,-6.2889 z"
     id="path3045"
     inkscape:connector-curvature="0"
     style="marker-end:url(#Arrow1Send);fill:#000000;fill-opacity:1;opacity:0.2" />
  <path
     id="path3113"
     d="m 326.13759,49.392854 c 0,-5.61246 4.54891,-10.16136 10.16137,-10.16136 5.61246,0 10.16136,4.5489 10.16136,10.16136 0,5.61246 -4.5489,10.16137 -10.16136,10.16137 -5.61246,0 -10.16137,-4.54891 -10.16137,-10.16137 z m 23.71324,13.54849 h -1.87477 l -10.53734,21.39475 3.94092,-19.70119 -5.08068,-5.08068 -5.08068,5.08068 3.94091,19.70119 -10.53733,-21.39475 h -1.87477 c -6.77086,0 -6.77086,4.5506 -6.77086,10.16136 v 16.93561 h 40.64546 v -16.93561 c 0,-5.61076 0,-10.16136 -6.77086,-10.16136 z"
     inkscape:connector-curvature="0"
     style="marker-end:url(#Arrow1Send);fill:#000000;fill-opacity:1;opacity:0.2" />
  <path
     style="fill:none;stroke:#000000;stroke-width:5;stroke-linecap:butt;stroke-linejoin:miter;stroke-miterlimit:4;stroke-opacity:1;stroke-dasharray:15, 5;stroke-dashoffset:16.50000000000000000;marker-mid:none;marker-end:url(#TriangleOutS);fill-opacity:1;opacity:0.20000000000000001"
     d="m 223.24396,60.792004 c 11.45684,-0.17646 28.64975,12.31416 38.88445,6.42541 10.95996,-6.30605 25.68486,0.3651 39.48791,-0.53014"
     id="path3122"
     inkscape:connector-curvature="0"
     sodipodi:nodetypes="csc" />
  <path
     id="path5391"
     d="m 72.779938,76.098024 q 0,0.52927 -0.59561,0.97104 -0.59561,0.44176 -1.83057,0.72827 -1.23497,0.28652 -2.53627,0.52928 -1.3013,0.24275 -3.32947,0.37543 -2.02817,0.13267 -3.52848,0.199 -1.5003,0.0663 -3.85874,0.11009 -2.35843,0.0438 -3.57223,0.0438 h -6.66035 q 0,0 -3.572226,-0.0438 -3.572229,-0.0437 -3.858741,-0.11009 -0.286512,-0.0663 -3.528475,-0.199 -3.241964,-0.13268 -3.32947,-0.37543 -0.08751,-0.24276 -2.536268,-0.52928 -2.448762,-0.28651 -1.830573,-0.72827 0.618189,-0.44177 -0.595607,-0.97104 0.08892,-3.88132 4.85236,-6.85794 4.763442,-2.97663 12.08573,-3.94766 v -1.45515 q -2.293505,-1.01479 -3.970237,-2.86653 -1.676731,-1.85174 -2.646356,-4.34426 -0.969625,-2.49251 -1.41139,-5.33647 -0.441766,-2.84395 -0.441766,-6.15225 0,-2.82278 1.102296,-5.02878 1.102296,-2.206 3.042958,-3.55106 1.940661,-1.34505 4.454345,-2.02958 2.51369,-0.68452 5.51289,-0.68311 2.99921,0.001 5.51289,0.68311 2.51369,0.68171 4.45435,2.02958 1.94066,1.34788 3.04296,3.55106 1.10229,2.20318 1.10229,5.02878 0,15.43779 -8.46834,18.78984 v 1.36764 q 7.32229,0.97104 12.08574,3.94766 4.76344,2.97662 4.85236,6.85794 z"
     inkscape:connector-curvature="0"
     style="marker-end:url(#Arrow1Send);fill:#000000;fill-opacity:1;opacity:0.2" />
  <path
     style="fill:none;stroke:#000000;stroke-width:5;stroke-linecap:butt;stroke-linejoin:miter;stroke-miterlimit:4;stroke-opacity:1;stroke-dasharray:15, 5;stroke-dashoffset:15.50000000000000000;marker-start:none;marker-mid:none;marker-end:url(#TriangleOutS);fill-opacity:1;opacity:0.20000000000000001"
     d="m 81.410804,60.134514 c 13.13059,-7.29372 29.335926,5.21313 45.101456,7.25014 12.66698,1.63665 27.19075,-5.84367 35.0048,-5.86302"
     id="path5448"
     inkscape:connector-curvature="0"
     sodipodi:nodetypes="csc" />
  <path
     id="path6929"
     d="m 356.98742,29.960914 q -2.063,0 -4.188,-0.5 -1.063,1.25 -2.172,2.172 -1.109,0.922 -1.875,1.359 -0.766,0.437 -1.484,0.672 -0.718,0.235 -0.938,0.266 -0.22,0.031 -0.344,0.031 0.813,-1.781 0.938,-3.891 0.125,-2.11 -0.406,-3.547 -2.594,-1.969 -4.063,-4.719 -1.469,-2.75 -1.469,-5.844 0,-2.844 1.266,-5.438 1.266,-2.5939995 3.406,-4.4689995 2.14,-1.875 5.109,-2.984 2.969,-1.109 6.219,-1.109 3.25,0 6.219,1.109 2.969,1.109 5.109,2.984 2.14,1.875 3.406,4.4689995 1.266,2.594 1.266,5.438 0,2.844 -1.266,5.438 -1.266,2.594 -3.406,4.469 -2.14,1.875 -5.109,2.984 -2.969,1.109 -6.219,1.109 z m -8.016,-16 q -0.828,0 -1.406,0.578 -0.578,0.578 -0.578,1.406 0,0.828 0.578,1.422 0.578,0.594 1.406,0.594 0.828,0 1.422,-0.594 0.594,-0.594 0.594,-1.422 0,-0.828 -0.594,-1.406 -0.594,-0.578 -1.422,-0.578 z m 8,0 q -0.828,0 -1.406,0.578 -0.578,0.578 -0.578,1.406 0,0.828 0.578,1.422 0.578,0.594 1.406,0.594 0.828,0 1.422,-0.594 0.594,-0.594 0.594,-1.422 0,-0.828 -0.594,-1.406 -0.594,-0.578 -1.422,-0.578 z m 8,0 q -0.828,0 -1.406,0.578 -0.578,0.578 -0.578,1.406 0,0.828 0.578,1.422 0.578,0.594 1.406,0.594 0.828,0 1.422,-0.594 0.594,-0.594 0.594,-1.422 0,-0.828 -0.594,-1.406 -0.594,-0.578 -1.422,-0.578 z"
     inkscape:connector-curvature="0"
     style="marker-end:url(#Arrow1Send);fill:#000000;fill-opacity:1;opacity:0.2" />
  <path
     id="path7799"
     d="m 471.52839,89.649676 -4.36677,-11.55882 -1.0696,0.004 q -0.36786,1.07099 -1.10411,3.07317 -0.73626,2.00217 -1.0587,2.88705 l -5.67229,0.0214 0.0112,2.97523 q 0.005,1.25556 -0.87564,2.11874 -0.8804,0.86319 -2.11215,0.86784 -1.23175,0.005 -2.09494,-0.87574 -0.86318,-0.88039 -0.86775,-2.08834 l -0.0112,-2.97524 -5.71841,0.0216 q -0.28301,-0.88258 -1.03437,-2.87913 -0.75137,-1.99656 -1.12732,-3.06474 l -1.0696,0.004 -4.27926,11.59149 q -1.63063,-0.83137 -1.63748,-2.6433 l -0.0337,-8.92571 q -0.005,-1.25555 2.35764,-3.61198 2.3624,-2.35642 3.57035,-2.36099 -0.0239,-6.32237 1.4645,-12.4184 1.48839,-6.09602 4.2125,-10.7552 2.72412,-4.65917 6.11148,-6.62525 3.40064,1.94042 6.16138,6.57886 2.76074,4.63845 4.2937,10.72305 1.53294,6.08461 1.55834,12.40698 1.20943,-0.005 3.58807,2.33393 2.37866,2.33851 2.38488,3.59405 l 0.0337,8.92571 q 0.007,1.8134 -1.61743,2.6556 z m -16.35768,-35.31574 q -2.46351,0.009 -4.20041,1.7594 -1.73689,1.75008 -1.72758,4.21356 0.009,2.46351 1.75939,4.20041 1.75007,1.7369 4.21358,1.72758 2.46349,-0.009 4.20039,-1.75938 1.7369,-1.75009 1.72759,-4.21358 -0.009,-2.46349 -1.7594,-4.20039 -1.75007,-1.7369 -4.21356,-1.7276 z"
     inkscape:connector-curvature="0"
     style="marker-end:url(#Arrow1Send);fill:#000000;fill-opacity:1;opacity:0.2" />
  <path
     style="fill:none;stroke:#000000;stroke-width:5;stroke-linecap:butt;stroke-linejoin:miter;stroke-miterlimit:4;stroke-opacity:1;stroke-dasharray:15, 5;stroke-dashoffset:4.50000000000000000;marker-start:none;marker-end:url(#TriangleOutS);fill-opacity:1;opacity:0.20000000000000001"
     d="m 365.77068,72.271834 c 19.74851,14.51092 44.3325,-6.83623 61.7269,-4.16136"
     id="path7808"
     inkscape:connector-curvature="0"
     sodipodi:nodetypes="cc" />
</svg>
